/* XPM */
static char * manaplus_xpm[] = {
"32 32 3 1",
" 	c None",
".	c #001FC6",
"+	c #001EC3",
"             ........           ",
"           ........ ....        ",
"         .....                  ",
"        ....                    ",
"      ....                      ",
"     ....                       ",
"    ....                        ",
"   ....                         ",
"   ...                          ",
"  ...                           ",
"  ...                           ",
" ...              ++     +      ",
" ...    +      +  +++    +      ",
"....   ++     ++   ++   +       ",
"...    +++    ++   ++   +       ",
"...    ++++  +++    ++ +        ",
"...    + ++ + ++    ++ +        ",
"...    +  +++  +     ++         ",
"...    +  ++   ++    ++         ",
"...   ++   +   ++               ",
" ..                             ",
" ..                        .....",
" ..                       .    .",
"  ..                     .     .",
"  ..                    ..     .",
"   ..                  ..     . ",
"    ..                 ...  ..  ",
"     .                .......   ",
"      ..             .......    ",
"       ..          ........     ",
"         ....  ..........       ",
"            ..........          "};
